<svg xmlns="http://www.w3.org/2000/svg" version="1.1" xmlns:xlink="http://www.w3.org/1999/xlink" width="1000" height="1000"><g clip-path="url(#SvgjsClipPath1145)"><rect width="1000" height="1000" fill="#000000"></rect><g transform="matrix(0.8333333333333334,0,0,0.8333333333333334,0,166.66666666666663)"><svg xmlns="http://www.w3.org/2000/svg" version="1.1" xmlns:xlink="http://www.w3.org/1999/xlink" width="1200" height="800"><svg xmlns="http://www.w3.org/2000/svg" height="800" width="1200" viewBox="-7.05021 -4.997875 61.10182 29.98725" style="background-color: #222"><path fill="#75c154" d="M26.7925 5.994l-.0208.0022a4.0167 4.0167 0 01-.1736.012c-.0032 0-.006 0-.0092.0003-.0257.001-.0515.0021-.0772.0025a3.6613 3.6613 0 01-.0886.001H26.42a3.223 3.223 0 01-.1006-.0017c-.0067 0-.0137-.0007-.0204-.0007a6.6274 6.6274 0 01-.089-.0046l-.0148-.0014a3.1962 3.1962 0 01-.2151-.0215l-.0071-.0011-.0056-.0004c-.3659-.0497-.7088-.1534-1.0369-.2734-.001-.0007-.0024-.001-.0038-.0017-.0413-.0162-.0826-.0332-.1246-.0501a24.1928 24.1928 0 01-.262-.1097c-.3003-.126-.6107-.2561-.93-.3567a2.5965 2.5965 0 00-.7306-.121c-.006-.0003-.0124-.0003-.0187-.0003-.0018 0-.0039-.0004-.006-.0004h-.0018a1.9705 1.9705 0 00-.3545.0208 2.8731 2.8731 0 00-.4128.0836 6.4918 6.4918 0 00.1217-.158c.0755-.101.1348-.229.1807-.3905.0165-.0572.0543-.1902.0077-.3218.0088-.0077.0177-.0162.0265-.024a1.0773 1.0773 0 00.2028-.1679 3.3019 3.3019 0 01.738-.4265c.4079-.1683.9003-.2776 1.457-.2215 1.4778.1488 2.0475.4628 3.0896-.6894C26.8602 1.1067 25.0053 0 22.8911 0c-2.371 0-4.4168 1.3928-5.3647 3.4043.2614.253.7867.5034 1.8105.2738a1.435 1.435 0 01.6865-.174c.248 0 .4815.0628.6854.174 1.7724.3979 2.0522-.6435 2.0522-.6435 0 .737-.294 1.0615-.7398 1.197a.5849.5849 0 01.0963.0469c.0949.061.1115.14.0695.2872-.0321.1128-.0776.23-.1471.3227-.1694.2272-.3563.4417-.5366.6608-.0007.0018-.0018.001-.001.006.0038.0367.0349.055.0684.0395.0099-.005.0194-.0092.029-.0141.303-.1464.6123-.2455.9267-.2847a2.3746 2.3746 0 011.021.0928c.4007.1263.7862.3006 1.1754.4604.0423.0172.085.0349.1273.0511.3556.1425.7172.2635 1.102.2896.1532.0202.3098.0321.471.0321a4.6 4.6 0 00.3944-.0172c.0015.2688.0011.5376 0 .806v2.6445a.2706.2706 0 01-.2776.2811c-.1425-.0035-.2558-.1227-.2639-.2649l-.0176-.3189c-.0688-.5179-.211-1.0097-.4452-1.5092-.0879.2787-.1732.5496-.2572.8167-.0843.2667-.1672.5306-.2501.7941l-.0928.3115c-.0391.132-.1838.2106-.3252.1556-.0978-.0388-.156-.1397-.1475-.2441 0 0 .1602-1.3187.0854-2.014-.6749.4279-1.4097.5947-2.1957.6078-.0205.4745-.0406.9094-.0614 1.3889v.0296a.2509.2509 0 01-.2734.2501c-.1189-.011-.212-.1086-.2276-.2268l-.0582-.4163c-.0497-.321-.099-.6389-.1485-.9567h-.0339c-.0433.3083-.0864.6166-.1308.9313l-.0522.4315a.2568.2568 0 01-.3013.2215c-.12-.0215-.2057-.1291-.2103-.2505l-.0208-.5052a127.085 127.085 0 00-.0515-1.0195c-.0021-.0356-.0324-.0712-.054-.1044-.001-.001-.002-.0028-.0031-.0046a3.7139 3.7139 0 01-.4615-.9881 143.067 143.067 0 01-.2215-.7476c.1937-.0747.3746-.2194.4-.261.025-.042-.0257-.0879-.0758-.0579-.0572.0357-.2149.1002-.2893.1062-.1774.0152-.3574.0095-.5362.007-.219-.0031-.356-.1446-.3637-.3633-.0032-.0907.0035-.1887-.0283-.2699-.1308-.3355-.2243-.6784-.2307-1.0403-.0014-.0702-.0236-.1009-.0733-.1108a8.0466 8.0466 0 01-.399.006c-.6054-.0092-1.1085-.1213-1.3244-.6255a5.9124 5.9124 0 00-.4353 2.2331c0 3.2735 2.6536 5.927 5.927 5.927 3.2738 0 5.9274-2.6535 5.9274-5.927 0-.2617-.017-.519-.0497-.7715-.4311.3602-1.0884.7507-1.9763.8379"></path><path fill="#fff" d="M0 19.9185h1.8094c1.1867 0 1.9265-.5275 1.9265-1.59 0-.586-.2783-.996-.769-1.2235.381-.2268.5785-.586.5785-1.0325 0-.9744-.6883-1.5018-1.8753-1.5018H0zm1.7582-2.2709c.7472 0 .9522.2269.9522.6594 0 .4318-.3076.6738-.901.6738h-.791v-1.3332zm-.0807-2.1392c.6007 0 .8424.1757.8424.564 0 .3737-.2194.6227-.8498.6227h-.6516v-1.1867zm2.564 4.41h3.1718v-.9747H5.2596V17.721h2.1537v-.9747H5.2596V15.545h2.1537v-.9744H4.2414zm5.1071 0h1.0185v-2.5128l1.7141-2.835h-1.121l-1.0986 1.8388L8.77 14.5707H7.6493l1.6993 2.8127zm4.7555.073c1.524 0 2.74-1.2234 2.74-2.747 0-1.5162-1.216-2.7467-2.74-2.7467-1.5163 0-2.7323 1.2305-2.7323 2.7467 0 1.5236 1.216 2.747 2.7323 2.747m0-1.0036c-.9596 0-1.7212-.7835-1.7212-1.7434 0-.9596.7616-1.743 1.7212-1.743.9599 0 1.729.7834 1.729 1.743 0 .9599-.7691 1.7434-1.729 1.7434m3.1933.9307h1.0181v-3.7141l2.3442 3.714h1.0841v-5.3477h-1.018v3.597l-2.271-3.597h-1.1574zm5.1365 0h1.5017c1.6334 0 2.7838-1.1505 2.7838-2.6741 0-1.5162-1.0181-2.6737-2.8275-2.6737h-1.458zm1.3405-4.4027c1.3113 0 1.9269.7179 1.9269 1.7286 0 .9818-.7253 1.729-1.8828 1.729h-.3662v-3.4576zm4.6316 4.4027h1.0182v-3.6848l1.5896 2.1533 1.6115-2.1755v3.707h1.0184v-5.3478h-.9599l-1.6626 2.2267-1.6045-2.2267H28.406zm5.9313 0h3.1718v-.9748h-2.1537V17.721h2.1537v-.9747h-2.1537V15.545h2.1537v-.9744h-3.1718zm3.5274 0h1.0626l.322-.9307h2.0511l.3225.9307h1.0622l-1.8973-5.3478h-1.0255zm2.4102-3.8975l.6886 1.9928h-1.3772zm3.0685 3.8975h1.018V15.545h1.421v-.9744H41.922v.9744h1.4214zm3.2326-4.5702a.4255.4255 0 00.4255-.4255.4254.4254 0 00-.851 0c0 .235.1905.4255.4255.4255m0-.0784c-.194 0-.3404-.1566-.3404-.3471 0-.1905.1464-.3471.3404-.3471.1937 0 .3404.1566.3404.3471 0 .1905-.1467.3471-.3404.3471m-.1506-.1443h.0815v-.3527h.0712c.0501 0 .091.0208.091.0716 0 .0511-.0398.0829-.092.0829h-.04l.1204.1982h.0963l-.0938-.145c.0635-.0193.0952-.0758.0952-.1393 0-.0748-.0635-.1397-.1654-.1397h-.1644z"></path></svg></svg></g></g><defs><clipPath id="SvgjsClipPath1145"><rect width="1000" height="1000" x="0" y="0" rx="250" ry="250"></rect></clipPath></defs></svg>